<svg width="18" height="18" viewBox="0 0 18 18" fill="none" xmlns="http://www.w3.org/2000/svg">
<path d="M17.6756 4.23633L15.3049 6.60938C15.5976 7.39453 15.7439 8.19141 15.7439 9C15.7439 9.80859 15.5976 10.6055 15.3049 11.3906L17.6581 13.7461C17.8688 13.957 17.9742 14.2178 17.9742 14.5283C17.9742 14.8389 17.8688 15.0996 17.6581 15.3105L15.3049 17.666C15.0942 17.877 14.8337 17.9824 14.5234 17.9824C14.2132 17.9824 13.9527 17.877 13.742 17.666L11.3888 15.3105C10.6044 15.6035 9.8083 15.75 9.0005 15.75C8.19269 15.75 7.3966 15.6035 6.61221 15.3105L4.24147 17.6836C4.03074 17.8945 3.77318 18 3.46879 18C3.1644 18 2.90099 17.8945 2.67855 17.6836L0.325375 15.3281C0.114643 15.1055 0.00927734 14.8418 0.00927734 14.5371C0.00927734 14.2324 0.114643 13.9746 0.325375 13.7637L2.69611 11.3906C2.40342 10.6055 2.25708 9.80859 2.25708 9C2.25708 8.19141 2.40928 7.39453 2.71367 6.60938L0.342936 4.23633C0.120497 4.02539 0.00927734 3.76465 0.00927734 3.4541C0.00927734 3.14355 0.120497 2.88281 0.342936 2.67188L2.67855 0.316406C2.88928 0.105469 3.14977 0 3.46001 0C3.77025 0 4.03074 0.105469 4.24147 0.316406L6.61221 2.70703C7.3966 2.40234 8.19269 2.25 9.0005 2.25C9.8083 2.25 10.6044 2.39648 11.3888 2.68945L13.7595 0.316406C13.9703 0.105469 14.2278 0 14.5322 0C14.8366 0 15.1 0.105469 15.3224 0.316406L17.6756 2.67188C17.8864 2.89453 17.9917 3.1582 17.9917 3.46289C17.9917 3.76758 17.8864 4.02539 17.6756 4.23633ZM9.00928 5.625C8.07855 5.625 7.28245 5.95605 6.62099 6.61816C5.95952 7.28027 5.62879 8.07422 5.62879 9C5.62879 9.92578 5.95952 10.7197 6.62099 11.3818C7.28245 12.0439 8.07855 12.375 9.00928 12.375C9.94001 12.375 10.7332 12.0439 11.3888 11.3818C12.0444 10.7197 12.3722 9.92578 12.3722 9C12.3722 8.07422 12.0444 7.28027 11.3888 6.61816C10.7332 5.95605 9.94001 5.625 9.00928 5.625Z" fill="#297EF3"/>
</svg>
